<svg width="48" height="47" viewBox="0 0 48 47" fill="none" xmlns="http://www.w3.org/2000/svg">
<circle opacity="0.1" cx="26" cy="22.4683" r="21.5" fill="#F6762C"/>
<path d="M13.3079 15.661H4.76931C3.58325 15.661 2.57531 16.0761 1.74501 16.9061C0.915108 17.7362 0.5 18.7442 0.5 19.9303V28.4686C0.5 29.6547 0.914874 30.6625 1.74501 31.4924C2.57523 32.3223 3.58348 32.7376 4.76931 32.7376H9.75006C10.3428 32.7376 10.8469 32.9452 11.262 33.3602C11.6772 33.7749 11.8846 34.2792 11.8846 34.8724V35.5836C11.8846 37.155 11.3286 38.4961 10.217 39.6081C9.1052 40.7195 7.76377 41.2754 6.1922 41.2754H4.76931C4.38364 41.2754 4.05023 41.4166 3.76845 41.6981C3.48691 41.9796 3.34602 42.3132 3.34602 42.6987V45.5451C3.34602 45.93 3.48691 46.2642 3.76845 46.5458C4.05046 46.8271 4.38356 46.9684 4.76931 46.9684H6.19228C7.7341 46.9684 9.20536 46.6678 10.6063 46.0676C12.0071 45.4674 13.2189 44.6556 14.2418 43.6327C15.2645 42.6097 16.0761 41.3982 16.6764 39.9973C17.2767 38.5964 17.5769 37.1252 17.5769 35.5836V19.93C17.5769 18.7439 17.1618 17.736 16.3318 16.906C15.5018 16.076 14.4937 15.661 13.3079 15.661Z" fill="#F6762C"/>
<path d="M36.2546 16.906C35.4247 16.076 34.4167 15.6609 33.2306 15.6609H24.6923C23.5062 15.6609 22.4983 16.076 21.6683 16.906C20.8384 17.7362 20.4235 18.7441 20.4235 19.9302V28.4685C20.4235 29.6546 20.8384 30.6623 21.6683 31.4923C22.4983 32.3222 23.5063 32.7375 24.6923 32.7375H29.6731C30.2658 32.7375 30.7703 32.9451 31.1854 33.3601C31.6 33.775 31.8079 34.2791 31.8079 34.8723V35.5834C31.8079 37.1548 31.2519 38.496 30.14 39.608C29.0284 40.7194 27.6872 41.2753 26.1155 41.2753H24.6923C24.3069 41.2753 23.9732 41.4165 23.6918 41.698C23.4101 41.9795 23.269 42.3131 23.269 42.6985V45.545C23.269 45.9298 23.4101 46.2641 23.6918 46.5456C23.9731 46.827 24.3069 46.9683 24.6923 46.9683H26.1155C27.6571 46.9683 29.1283 46.6677 30.5294 46.0675C31.93 45.4673 33.1416 44.6555 34.1646 43.6326C35.1874 42.6096 35.9996 41.3978 36.5995 39.9971C37.1997 38.5966 37.5001 37.1251 37.5001 35.5835V19.9299C37.4998 18.7437 37.0851 17.7359 36.2546 16.906Z" fill="#F6762C"/>
</svg>
