<svg width="12" height="10" viewBox="0 0 12 10" fill="none" xmlns="http://www.w3.org/2000/svg">
<path d="M10.9453 0.498535H1.05469C0.473859 0.498535 0 0.971879 0 1.55322V8.58447C0 9.16385 0.47175 9.63916 1.05469 9.63916H10.9453C11.5247 9.63916 12 9.16741 12 8.58447V1.55322C12 0.973848 11.5282 0.498535 10.9453 0.498535ZM10.7997 1.20166L6.02236 5.979L1.20373 1.20166H10.7997ZM0.703125 8.43888V1.69546L4.08935 5.05265L0.703125 8.43888ZM1.2003 8.93604L4.58866 5.54768L5.77594 6.72475C5.91337 6.86102 6.13516 6.86057 6.27204 6.72368L7.42969 5.56603L10.7997 8.93604H1.2003ZM11.2969 8.43886L7.92687 5.06885L11.2969 1.69882V8.43886Z" fill="#F6762C"/>
</svg>
