<svg width="12" height="13" viewBox="0 0 12 13" fill="none" xmlns="http://www.w3.org/2000/svg">
<path d="M6 0.498535C2.69156 0.498535 0 3.19009 0 6.49854C0 9.80698 2.69156 12.4985 6 12.4985C9.30844 12.4985 12 9.80698 12 6.49854C12 3.19009 9.30844 0.498535 6 0.498535ZM5.64844 3.4436C5.11359 3.42062 4.58414 3.34546 4.07858 3.22324C4.15933 3.03189 4.24695 2.84814 4.34143 2.67401C4.72906 1.95972 5.20496 1.45847 5.64844 1.27692V3.4436ZM5.64844 4.14728V6.14697H3.45255C3.48349 5.36649 3.61652 4.59167 3.83652 3.8869C4.41953 4.03375 5.03156 4.12265 5.64844 4.14728ZM5.64844 6.8501V8.84979C5.03156 8.87442 4.41953 8.96332 3.83652 9.11017C3.61652 8.4054 3.48349 7.63058 3.45255 6.8501H5.64844ZM5.64844 9.55347V11.7202C5.20496 11.5386 4.72906 11.0374 4.34143 10.3231C4.24695 10.1489 4.15933 9.96518 4.07858 9.77383C4.58414 9.65161 5.11349 9.57645 5.64844 9.55347ZM6.35156 9.55347C6.88641 9.57645 7.41586 9.65161 7.92142 9.77383C7.84067 9.96518 7.75305 10.1489 7.65857 10.3231C7.27094 11.0374 6.79504 11.5386 6.35156 11.7202V9.55347ZM6.35156 8.84979V6.8501H8.54745C8.51651 7.63058 8.38348 8.4054 8.16348 9.11017C7.58047 8.96332 6.96844 8.87442 6.35156 8.84979ZM6.35156 6.14697V4.14728C6.96844 4.12265 7.58047 4.03375 8.16348 3.8869C8.38348 4.59167 8.51651 5.36649 8.54745 6.14697H6.35156ZM6.35156 3.4436V1.27692C6.79504 1.45847 7.27094 1.95972 7.65857 2.67401C7.75305 2.84814 7.84067 3.03189 7.92142 3.22324C7.41586 3.34546 6.88641 3.42062 6.35156 3.4436ZM8.27655 2.33865C8.10049 2.01419 7.90924 1.72818 7.70764 1.48419C8.41058 1.72424 9.04733 2.10831 9.58282 2.60086C9.2774 2.76447 8.94827 2.90656 8.60202 3.0253C8.50378 2.78671 8.3952 2.55719 8.27655 2.33865ZM3.72345 2.33865C3.6048 2.55719 3.49622 2.78671 3.39798 3.0253C3.05173 2.90656 2.7226 2.76437 2.41718 2.60086C2.95267 2.10831 3.58942 1.72424 4.29236 1.48419C4.09076 1.72818 3.8996 2.0141 3.72345 2.33865ZM3.16013 3.68613C2.92017 4.4538 2.77908 5.29068 2.74869 6.14697H0.715118C0.790375 5.0043 1.22919 3.95932 1.9173 3.12747C2.29916 3.34647 2.71738 3.53378 3.16013 3.68613ZM2.74869 6.8501C2.77908 7.70648 2.92017 8.54327 3.16013 9.31094C2.71738 9.46329 2.29916 9.6506 1.9173 9.8696C1.22919 9.03775 0.790375 7.99277 0.715118 6.8501H2.74869ZM3.39798 9.97177C3.49622 10.2104 3.6048 10.4399 3.72345 10.6584C3.8996 10.9829 4.09076 11.2689 4.29236 11.5129C3.58942 11.2728 2.95267 10.8888 2.41727 10.3962C2.7225 10.2327 3.05173 10.0905 3.39798 9.97177ZM8.27655 10.6584C8.3952 10.4399 8.50378 10.2104 8.60202 9.97177C8.94827 10.0905 9.2774 10.2327 9.58282 10.3962C9.04733 10.8888 8.41058 11.2728 7.70764 11.5129C7.90924 11.2689 8.1004 10.983 8.27655 10.6584ZM8.83987 9.31094C9.07983 8.54327 9.22092 7.70639 9.25131 6.8501H11.2849C11.2096 7.99277 10.7708 9.03775 10.0827 9.8696C9.70084 9.6506 9.28262 9.46329 8.83987 9.31094ZM9.25131 6.14697C9.22092 5.29059 9.07983 4.4538 8.83987 3.68613C9.28262 3.53378 9.70084 3.34647 10.0827 3.12747C10.7708 3.95932 11.2096 5.0043 11.2849 6.14697H9.25131Z" fill="#F6762C"/>
</svg>
